<?xml version="1.0" encoding="UTF-8" standalone="no"?>
<!DOCTYPE svg PUBLIC "-//W3C//DTD SVG 1.1//EN" "http://www.w3.org/Graphics/SVG/1.1/DTD/svg11.dtd">
<svg version="1.1" xmlns="http://www.w3.org/2000/svg" xmlns:xlink="http://www.w3.org/1999/xlink" preserveAspectRatio="xMidYMid meet" viewBox="0 0 640 640" width="640" height="640"><defs><path d="M305.06 159.68L308.69 160.04L312.28 160.56L315.82 161.21L319.31 161.99L322.74 162.91L326.13 163.97L329.45 165.15L332.71 166.45L335.91 167.88L339.04 169.42L342.1 171.09L345.09 172.86L348 174.75L350.84 176.75L353.59 178.84L356.25 181.05L358.83 183.35L361.32 185.74L363.72 188.23L366.02 190.81L368.22 193.48L370.32 196.23L372.32 199.06L374.2 201.98L375.98 204.96L377.64 208.03L379.19 211.16L380.62 214.35L381.92 217.62L383.1 220.94L384.15 224.32L385.07 227.76L385.86 231.25L386.51 234.79L387.02 238.38L387.39 242.01L387.61 245.68L387.69 249.39L387.61 253.1L387.39 256.77L387.02 260.41L386.51 263.99L385.86 267.53L385.07 271.02L384.15 274.46L383.1 277.84L381.92 281.17L380.62 284.43L379.19 287.63L377.64 290.76L375.98 293.82L374.2 296.81L372.38 299.62L429.23 356.47L404.75 380.95L347.9 324.1L345.09 325.92L342.1 327.7L339.04 329.36L335.91 330.91L332.71 332.33L329.45 333.64L326.13 334.82L322.74 335.87L319.31 336.79L315.82 337.58L312.28 338.23L308.69 338.74L305.06 339.11L301.38 339.33L297.67 339.41L293.96 339.33L290.29 339.11L286.66 338.74L283.07 338.23L279.53 337.58L276.04 336.79L272.6 335.87L269.22 334.82L265.9 333.64L262.64 332.33L259.44 330.91L256.31 329.36L253.25 327.7L250.26 325.92L247.35 324.03L244.51 322.04L241.76 319.94L239.09 317.74L236.51 315.44L234.02 313.04L231.63 310.55L229.33 307.97L227.13 305.31L225.03 302.55L223.03 299.72L221.15 296.81L219.37 293.82L217.71 290.76L216.16 287.63L214.73 284.43L213.43 281.17L212.25 277.84L211.2 274.46L210.28 271.02L209.49 267.53L208.84 263.99L208.33 260.41L207.96 256.77L207.73 253.1L207.66 249.39L207.73 245.68L207.96 242.01L208.33 238.38L208.84 234.79L209.49 231.25L210.28 227.76L211.2 224.32L212.25 220.94L213.43 217.62L214.73 214.35L216.16 211.16L217.71 208.03L219.37 204.96L221.15 201.98L223.03 199.06L225.03 196.23L227.13 193.48L229.33 190.81L231.63 188.23L234.02 185.74L236.51 183.35L239.09 181.05L241.76 178.84L244.51 176.75L247.35 174.75L250.26 172.86L253.25 171.09L256.31 169.42L259.44 167.88L262.64 166.45L265.9 165.15L269.22 163.97L272.6 162.91L276.04 161.99L279.53 161.21L283.07 160.56L286.66 160.04L290.29 159.68L293.96 159.45L297.67 159.38L301.38 159.45L305.06 159.68ZM293.12 194.04L290.88 194.26L288.67 194.58L286.48 194.98L284.33 195.47L282.21 196.03L280.12 196.68L278.07 197.41L276.06 198.22L274.08 199.1L272.15 200.05L270.26 201.08L268.42 202.17L266.62 203.34L264.87 204.57L263.17 205.86L261.53 207.22L259.94 208.64L258.4 210.12L256.92 211.65L255.5 213.25L254.14 214.89L252.85 216.59L251.62 218.34L250.45 220.14L249.36 221.98L248.33 223.87L247.38 225.8L246.5 227.77L245.69 229.79L244.96 231.84L244.32 233.92L243.75 236.04L243.26 238.2L242.86 240.38L242.54 242.6L242.32 244.84L242.18 247.1L242.13 249.39L242.18 251.68L242.32 253.95L242.54 256.19L242.86 258.4L243.26 260.59L243.75 262.74L244.32 264.86L244.96 266.95L245.69 269L246.5 271.01L247.38 272.98L248.33 274.92L249.36 276.81L250.45 278.65L251.62 280.45L252.85 282.19L254.14 283.89L255.5 285.54L256.92 287.13L258.4 288.67L259.94 290.14L261.53 291.56L263.17 292.92L264.87 294.22L266.62 295.45L268.42 296.61L270.26 297.71L272.15 298.73L274.08 299.69L276.06 300.57L278.07 301.37L280.12 302.1L282.21 302.75L284.33 303.32L286.48 303.8L288.67 304.21L290.88 304.52L293.12 304.75L295.38 304.89L297.67 304.93L299.96 304.89L302.23 304.75L304.47 304.52L306.68 304.21L308.87 303.8L311.02 303.32L313.14 302.75L315.23 302.1L317.28 301.37L319.29 300.57L321.27 299.69L323.2 298.73L325.09 297.71L326.93 296.61L328.73 295.45L330.48 294.22L332.17 292.92L333.82 291.56L335.41 290.14L336.95 288.67L338.43 287.13L339.85 285.54L341.2 283.89L342.5 282.19L343.73 280.45L344.89 278.65L345.99 276.81L347.02 274.92L347.97 272.98L348.85 271.01L349.66 269L350.38 266.95L351.03 264.86L351.6 262.74L352.09 260.59L352.49 258.4L352.8 256.19L353.03 253.95L353.17 251.68L353.22 249.39L353.17 247.1L353.03 244.84L352.8 242.6L352.49 240.38L352.09 238.2L351.6 236.04L351.03 233.92L350.38 231.84L349.66 229.79L348.85 227.77L347.97 225.8L347.02 223.87L345.99 221.98L344.89 220.14L343.73 218.34L342.5 216.59L341.2 214.89L339.85 213.25L338.43 211.65L336.95 210.12L335.41 208.64L333.82 207.22L332.17 205.86L330.48 204.57L328.73 203.34L326.93 202.17L325.09 201.08L323.2 200.05L321.27 199.1L319.29 198.22L317.28 197.41L315.23 196.68L313.14 196.03L311.02 195.47L308.87 194.98L306.68 194.58L304.47 194.26L302.23 194.04L299.96 193.9L297.67 193.85L295.38 193.9L293.12 194.04Z" id="a33nTOzTF"></path><path d="M287.16 223.93L267.89 257.5L287.16 257.5L273.4 281.74L325.7 248.17L298.17 248.17L317.44 223.93L287.16 223.93Z" id="d1fDT9xBZ"></path></defs><g><g><g><use xlink:href="#a33nTOzTF" opacity="1" fill="#241c15" fill-opacity="1"></use><g><use xlink:href="#a33nTOzTF" opacity="1" fill-opacity="0" stroke="#efeeea" stroke-width="5" stroke-opacity="1"></use></g></g><g><use xlink:href="#d1fDT9xBZ" opacity="1" fill="#ffe01b" fill-opacity="1"></use><g><use xlink:href="#d1fDT9xBZ" opacity="1" fill-opacity="0" stroke="#548991" stroke-width="3" stroke-opacity="1"></use></g></g></g></g></svg>